<svg width="16" height="16" viewBox="0 0 16 16" fill="none" xmlns="http://www.w3.org/2000/svg">
	<path d="M15.589 14.4127L11.2363 10.06C13.3059 7.33945 12.7782 3.45627 10.0576 1.38666C7.33707 -0.682932 3.45389 -0.155226 1.38428 2.56533C-0.685313 5.28588 -0.157606 9.16906 2.56295 11.2387C4.77722 12.9231 7.84333 12.9231 10.0576 11.2387L14.4103 15.5913C14.7381 15.9111 15.2611 15.9111 15.589 15.5913C15.9141 15.2657 15.9141 14.7383 15.589 14.4127ZM1.83295 6.33333V6.33333C1.83295 3.84805 3.84767 1.83333 6.33295 1.83333C8.81823 1.83333 10.833 3.84805 10.833 6.33333C10.833 8.81861 8.81823 10.8333 6.33295 10.8333C3.84889 10.8304 1.83589 8.81739 1.83295 6.33333L1.83295 6.33333Z" fill="#4F4F4F"/>
</svg>
